<?xml version="1.0" encoding="UTF-8"?>
<svg width="487px" height="200px" viewBox="0 0 487 200" version="1.1" xmlns="http://www.w3.org/2000/svg" xmlns:xlink="http://www.w3.org/1999/xlink">
    <!-- Generator: Sketch 54.1 (76490) - https://sketchapp.com -->
    <title>Logo font converted</title>
    <desc>Created with Sketch.</desc>
    <g id="Page-1" stroke="none" stroke-width="1" fill="none" fill-rule="evenodd">
        <g id="Artboard" transform="translate(-351.000000, -507.000000)">
            <g id="Logo-font-converted" transform="translate(356.000000, 512.000000)">
                <g id="whiskey-copy-2">
                    <polygon id="Rectangle" fill="#AEA357" points="0 20 192 20 184 178 97 192 13 178"></polygon>
                    <g id="glass" transform="translate(0.000000, 0.000000)" stroke="#000000" stroke-width="10">
                        <path d="M10,178 C10,184.627417 48.9512268,190 97,190 L97,190 C145.048773,190 184,184.627417 184,178" id="Path"></path>
                        <path d="M8,152 C8,159.731986 47.398942,166 96,166 L96,166 C144.601058,166 184,159.731986 184,152" id="Path"></path>
                        <ellipse id="Oval-Copy-2" cx="96" cy="84" rx="90" ry="14"></ellipse>
                        <ellipse id="Oval-Copy-3" fill="#AEA357" cx="96" cy="14" rx="96" ry="14"></ellipse>
                        <path d="M0,14 L10,178" id="Path-2"></path>
                        <path d="M184,178 L192,14" id="Path-3"></path>
                    </g>
                    <g id="ice" transform="translate(6.000000, 51.000000)" fill="#FFFFFF" stroke="#000000" stroke-width="10">
                        <path d="M26.8522114,39.3981769 C26.8096406,39.3980666 26.8096406,39.3980666 26.7670698,39.3981759 C20.6919827,39.4216113 15.7861498,44.3654406 15.8095853,50.4405277 L15.9325697,82.3213437 C15.9558769,88.3632076 20.8479165,93.2553692 26.8897798,93.2788272 L58.7721947,93.402613 C58.8147655,93.4027233 58.8147655,93.4027233 58.8573363,93.402614 C64.9324233,93.3791786 69.8382563,88.4353493 69.8148208,82.3602623 L69.6918364,50.4794462 C69.6685291,44.4375823 64.7764896,39.5454207 58.7346262,39.5219627 L26.8522114,39.3981769 Z" id="Rectangle" transform="translate(42.812203, 66.400395) rotate(-25.000000) translate(-42.812203, -66.400395) "></path>
                        <path d="M88.9472219,15.9518728 C82.904363,15.9744835 78.0112227,20.8674996 77.9884587,26.9103579 L77.8784318,56.1176054 C77.878328,56.1589037 77.878328,56.1589037 77.8784308,56.2002019 C77.9011621,62.2752917 82.8444227,67.1816976 88.9195125,67.1589663 L118.541981,67.0481272 C124.58484,67.0255165 129.477981,62.1325004 129.500745,56.0896421 L129.610771,26.8823946 C129.610875,26.8410963 129.610875,26.8410963 129.610773,26.7997981 C129.588041,20.7247083 124.644781,15.8183024 118.569691,15.8410337 L88.9472219,15.9518728 Z" id="Rectangle-Copy" transform="translate(103.744602, 41.500000) rotate(24.000000) translate(-103.744602, -41.500000) "></path>
                        <path d="M126.022385,44.3088777 C119.95922,44.3172293 115.046084,49.2302164 115.037548,55.2933814 L114.993966,86.2509669 C114.993951,86.2662857 114.993951,86.2662857 114.993965,86.2816045 C115.002333,92.356731 119.93398,97.2748104 126.009107,97.2664423 L157.966884,97.2224226 C164.030049,97.214071 168.943185,92.3010838 168.951721,86.2379189 L168.995303,55.2803334 C168.995318,55.2650145 168.995318,55.2650145 168.995304,55.2496957 C168.986936,49.1745693 164.055289,44.2564898 157.980163,44.2648579 L126.022385,44.3088777 Z" id="Rectangle-Copy-5" transform="translate(141.994635, 70.765650) rotate(8.000000) translate(-141.994635, -70.765650) "></path>
                    </g>
                </g>
                <path d="M217.370117,50.6328125 L249.293945,50.6328125 L249.293945,138.269531 L260.231445,138.269531 L260.231445,157 L217.370117,157 L217.370117,138.269531 L228.307617,138.269531 L228.307617,69.3632812 L217.370117,69.3632812 L217.370117,50.6328125 Z M272.125977,86.1796875 L303.913086,86.1796875 L303.913086,138.269531 L313.756836,138.269531 L313.756836,157 L272.125977,157 L272.125977,138.269531 L282.790039,138.269531 L282.790039,104.910156 L272.125977,104.910156 L272.125977,86.1796875 Z M281.696289,63.3476562 C281.696289,61.6614499 282.003903,60.0778069 282.619141,58.5966797 C283.234378,57.1155525 284.088862,55.8281305 285.182617,54.734375 C286.276373,53.6406195 287.563795,52.7747428 289.044922,52.1367188 C290.526049,51.4986947 292.132478,51.1796875 293.864258,51.1796875 C295.504891,51.1796875 297.054355,51.4986947 298.512695,52.1367188 C299.971036,52.7747428 301.247065,53.6406195 302.34082,54.734375 C303.434576,55.8281305 304.300453,57.1155525 304.938477,58.5966797 C305.576501,60.0778069 305.895508,61.6614499 305.895508,63.3476562 C305.895508,65.0338626 305.576501,66.6175056 304.938477,68.0986328 C304.300453,69.57976 303.434576,70.867182 302.34082,71.9609375 C301.247065,73.054693 299.971036,73.9205697 298.512695,74.5585938 C297.054355,75.1966178 295.504891,75.515625 293.864258,75.515625 C292.132478,75.515625 290.526049,75.1966178 289.044922,74.5585938 C287.563795,73.9205697 286.276373,73.054693 285.182617,71.9609375 C284.088862,70.867182 283.234378,69.57976 282.619141,68.0986328 C282.003903,66.6175056 281.696289,65.0338626 281.696289,63.3476562 Z M362.086914,170.466797 L376.78418,170.466797 L376.78418,154.470703 C374.368803,155.655605 371.919283,156.601233 369.435547,157.307617 C366.95181,158.014001 364.411146,158.367188 361.813477,158.367188 C356.390272,158.367188 351.411481,157.398773 346.876953,155.461914 C342.342425,153.525055 338.44598,150.859066 335.1875,147.463867 C331.92902,144.068668 329.388355,140.092471 327.56543,135.535156 C325.742504,130.977842 324.831055,126.101588 324.831055,120.90625 C324.831055,115.847631 325.731111,111.085309 327.53125,106.619141 C329.331389,102.152972 331.837875,98.2451339 335.050781,94.8955078 C338.263688,91.5458817 342.114561,88.902679 346.603516,86.9658203 C351.09247,85.0289617 356.025689,84.0605469 361.40332,84.0605469 C364.274428,84.0605469 366.974597,84.3339816 369.503906,84.8808594 C372.033216,85.4277371 374.459949,86.2024689 376.78418,87.2050781 L376.78418,84.0605469 L397.770508,84.0605469 L397.770508,170.466797 L408.297852,170.466797 L408.297852,189.197266 L362.086914,189.197266 L362.086914,170.466797 Z M363.112305,139.363281 C365.93784,139.363281 368.524077,138.713874 370.871094,137.415039 C373.218111,136.116204 375.18912,134.327485 376.78418,132.048828 L376.78418,110.105469 C375.18912,107.872385 373.161145,106.117845 370.700195,104.841797 C368.239246,103.565749 365.641615,102.927734 362.907227,102.927734 C360.582996,102.927734 358.372732,103.360673 356.276367,104.226562 C354.180003,105.092452 352.357104,106.322909 350.807617,107.917969 C349.25813,109.513029 348.027674,111.427072 347.116211,113.660156 C346.204748,115.89324 345.749023,118.399726 345.749023,121.179688 C345.749023,124.005222 346.204748,126.545887 347.116211,128.801758 C348.027674,131.057628 349.269523,132.971672 350.841797,134.543945 C352.41407,136.116219 354.248362,137.312496 356.344727,138.132812 C358.441091,138.953129 360.696928,139.363281 363.112305,139.363281 Z M481.510742,111.951172 L462.301758,111.951172 L462.301758,104.636719 C460.433259,104.636719 458.724292,104.762043 457.174805,105.012695 C455.625318,105.263348 454.269537,105.684893 453.107422,106.277344 C451.945307,106.869795 450.965499,107.690099 450.167969,108.738281 C449.370439,109.786464 448.812176,111.085279 448.493164,112.634766 L448.493164,138.269531 L462.916992,138.269531 L462.916992,157 L416.706055,157 L416.706055,138.269531 L427.301758,138.269531 L427.301758,104.910156 L416.842773,104.910156 L416.842773,86.1796875 L448.356445,86.1796875 L448.356445,91.1699219 C450.361664,89.5748618 452.6175,88.3444054 455.124023,87.4785156 C457.630546,86.6126259 460.364894,86.1796875 463.327148,86.1796875 C466.334976,86.1796875 469.433903,86.2024737 472.624023,86.2480469 C475.814144,86.29362 478.776354,86.3164062 481.510742,86.3164062 L481.510742,111.951172 Z" id="liqr" fill="#000000" fill-rule="nonzero"></path>
            </g>
        </g>
    </g>
</svg>